<?xml version="1.0" standalone="no"?>
<!DOCTYPE svg PUBLIC "-//W3C//DTD SVG 20010904//EN"
 "http://www.w3.org/TR/2001/REC-SVG-20010904/DTD/svg10.dtd">
<svg version="1.0" xmlns="http://www.w3.org/2000/svg"
 width="500.000000pt" height="500.000000pt" viewBox="0 0 500.000000 500.000000"
 preserveAspectRatio="xMidYMid meet">
<metadata>
Created by potrace 1.16, written by Peter Selinger 2001-2019
</metadata>
<g transform="translate(0.000000,500.000000) scale(0.100000,-0.100000)"
fill="#000000" stroke="none">
<path d="M2330 2634 c-105 -18 -150 -48 -150 -100 0 -38 13 -50 71 -68 l44
-13 -45 -7 c-25 -5 -49 -10 -53 -13 -13 -8 13 -32 57 -56 35 -19 57 -22 151
-22 84 1 118 5 142 18 46 25 63 45 63 77 0 31 -39 70 -71 70 -38 0 -26 18 16
24 40 6 44 9 35 26 -23 42 -171 79 -260 64z"/>
<path d="M600 2623 c-27 -10 -30 -26 -30 -145 l0 -118 80 0 80 0 0 46 0 45 48
-3 47 -3 3 -42 3 -43 70 0 69 0 0 38 c0 21 -7 47 -15 59 -10 15 -12 24 -4 28
43 27 23 115 -31 134 -33 11 -292 14 -320 4z"/>
<path d="M1020 2495 l0 -135 80 0 80 0 0 135 0 135 -80 0 -80 0 0 -135z"/>
<path d="M1220 2495 l0 -135 143 0 c116 0 149 4 182 19 60 28 80 55 80 111 0
106 -65 139 -272 140 l-133 0 0 -135z"/>
<path d="M1670 2495 l0 -135 185 0 185 0 0 40 0 40 -107 2 -108 2 105 5 105 6
3 38 3 37 -105 0 c-64 0 -106 4 -106 10 0 6 42 10 105 10 l105 0 0 40 0 40
-185 0 -185 0 0 -135z"/>
<path d="M2650 2495 l0 -135 80 0 80 0 0 40 0 40 45 0 45 0 0 -40 0 -40 80 0
80 0 0 135 0 135 -80 0 -80 0 0 -45 0 -45 -45 0 -45 0 0 45 0 45 -80 0 -80 0
0 -135z"/>
<path d="M3170 2495 l-90 -135 79 0 c70 0 82 3 91 20 9 17 21 20 86 20 64 0
78 -3 92 -20 15 -18 26 -21 89 -18 l72 3 -85 133 -86 132 -79 0 -79 0 -90
-135z"/>
<path d="M3610 2496 l0 -136 80 0 80 0 0 46 0 45 53 -3 52 -3 3 -42 3 -43 70
0 69 0 0 38 c0 20 -7 45 -15 56 -12 16 -12 21 0 40 24 33 19 79 -11 107 -25
23 -31 24 -205 27 l-179 3 0 -135z"/>
<path d="M4060 2495 l0 -135 185 0 185 0 0 40 0 39 -107 4 -108 3 108 2 107 2
0 40 0 40 -105 0 c-63 0 -105 4 -105 10 0 6 42 10 105 10 l105 0 0 40 0 40
-185 0 -185 0 0 -135z"/>
</g>
</svg>
